<?xml version="1.0" encoding="iso-8859-1"?>
<!-- Uploaded to: SVG Repo, www.svgrepo.com, Generator: SVG Repo Mixer Tools -->
<svg fill="#000000" height="800px" width="800px" version="1.1" id="Layer_1" xmlns="http://www.w3.org/2000/svg" xmlns:xlink="http://www.w3.org/1999/xlink" 
	 viewBox="0 0 395.664 395.664" xml:space="preserve">
<g>
	<g>
		<path d="M95.265,247.917c-6.25,0-11.334-5.084-11.334-11.333c0-6.249,5.085-11.334,11.334-11.334h2.868
			c4.668,0,8.466,3.798,8.466,8.466c0,4.142,3.358,7.5,7.5,7.5c4.142,0,7.5-3.358,7.5-7.5c0-12.939-10.527-23.466-23.466-23.466
			h-2.868c-14.521,0-26.334,11.813-26.334,26.334s11.813,26.333,26.334,26.333c6.25,0,11.334,5.084,11.334,11.334
			c0,6.25-5.084,11.334-11.334,11.334h-2.868c-4.668,0-8.466-3.798-8.466-8.466c0-4.142-3.358-7.5-7.5-7.5
			c-4.142,0-7.5,3.358-7.5,7.5c0,12.939,10.527,23.466,23.466,23.466h2.868c14.521,0,26.334-11.813,26.334-26.334
			S109.786,247.917,95.265,247.917z"/>
	</g>
</g>
<g>
	<g>
		<path d="M254.813,275.107c-4.142,0-7.5,3.358-7.5,7.5v2.979h-22.667V217.75c0-4.142-3.358-7.5-7.5-7.5c-4.142,0-7.5,3.358-7.5,7.5
			v75.335c0,4.142,3.358,7.5,7.5,7.5h37.667c4.142,0,7.5-3.358,7.5-7.5v-10.479C262.313,278.465,258.955,275.107,254.813,275.107z"
			/>
	</g>
</g>
<g>
	<g>
		<path d="M319.234,237.804c4.142,0,7.5-3.358,7.5-7.5V217.75c0-4.142-3.358-7.5-7.5-7.5h-37.668c-4.142,0-7.5,3.358-7.5,7.5v75.335
			c0,4.142,3.358,7.5,7.5,7.5h37.668c4.142,0,7.5-3.358,7.5-7.5v-10.479c0-4.142-3.358-7.5-7.5-7.5c-4.142,0-7.5,3.358-7.5,7.5
			v2.979h-22.668v-22.668h13.749c4.142,0,7.5-3.358,7.5-7.5c0-4.142-3.358-7.5-7.5-7.5h-13.749V225.25h22.668v5.054
			C311.734,234.446,315.092,237.804,319.234,237.804z"/>
	</g>
</g>
<g>
	<g>
		<path d="M163.623,210.738c-14.386,0-26.09,11.704-26.09,26.09v55.771c0,4.142,3.358,7.5,7.5,7.5c4.142,0,7.5-3.358,7.5-7.5
			v-17.607h22.18v17.607c0,4.142,3.358,7.5,7.5,7.5c4.142,0,7.5-3.358,7.5-7.5v-55.771
			C189.713,222.442,178.009,210.738,163.623,210.738z M174.712,259.991h-22.18v-23.163c0-6.115,4.975-11.09,11.09-11.09
			s11.09,4.975,11.09,11.09V259.991z"/>
	</g>
</g>
<g>
	<g>
		<path d="M342.612,327.404c32.869-36.11,50.941-82.772,50.941-131.684C393.553,87.8,305.753,0,197.833,0
			C89.912,0,2.112,87.8,2.112,195.72s87.8,195.72,195.72,195.72c29.855,0,59.55-6.895,86.204-19.975
			c26.664,20.639,59.869,24.024,61.337,24.165c0.239,0.022,0.477,0.034,0.714,0.034c2.626,0,5.086-1.38,6.445-3.668
			c1.482-2.495,1.393-5.621-0.23-8.026C340.107,365.891,341.838,335.849,342.612,327.404z M289.905,356.894
			c-1.394-1.204-3.142-1.826-4.906-1.826c-1.187,0-2.38,0.281-3.477,0.855c-25.639,13.422-54.578,20.517-83.689,20.517
			c-99.649,0-180.72-81.071-180.72-180.72S98.183,15,197.833,15s180.721,81.071,180.721,180.72
			c0,45.941-17.266,89.732-48.618,123.305c-1.064,1.14-1.747,2.582-1.953,4.126c-0.195,1.458-3.883,30.322,4.809,54.873
			C320.98,375.032,303.827,368.926,289.905,356.894z"/>
	</g>
</g>
<g>
	<g>
		<path d="M196.519,82.322c-4.142,0-7.5,3.358-7.5,7.5v92.996c0,4.142,3.358,7.5,7.5,7.5c4.142,0,7.5-3.358,7.5-7.5V89.822
			C204.019,85.68,200.661,82.322,196.519,82.322z"/>
	</g>
</g>
<g>
	<g>
		<path d="M272.522,119.218c4.142,0,7.5-3.358,7.5-7.5v-1.896c0-15.164-12.336-27.5-27.5-27.5s-27.5,12.336-27.5,27.5v52.996
			c0,15.164,12.336,27.5,27.5,27.5s27.5-12.336,27.5-27.5v-8.433c0-4.142-3.358-7.5-7.5-7.5h-15.333c-4.142,0-7.5,3.358-7.5,7.5
			c0,4.142,3.358,7.5,7.5,7.5h7.833v0.933c0,6.893-5.607,12.5-12.5,12.5s-12.5-5.607-12.5-12.5v-52.996
			c0-6.893,5.607-12.5,12.5-12.5s12.5,5.607,12.5,12.5v1.896C265.022,115.86,268.38,119.218,272.522,119.218z"/>
	</g>
</g>
<g>
	<g>
		<path d="M158.138,129.679c4.485-5.03,7.218-11.655,7.218-18.909c0-15.687-12.762-28.448-28.448-28.448h-13.765
			c-4.142,0-7.5,3.358-7.5,7.5v41.896v51.099c0,4.142,3.358,7.5,7.5,7.5h16.827c18.224,0.001,33.05-14.825,33.05-33.049
			C173.02,145.752,167.095,135.598,158.138,129.679z M130.643,97.322h6.265c7.416,0,13.448,6.033,13.448,13.448
			c0,7.415-6.033,13.448-13.448,13.448h-6.265V97.322z M139.971,175.318h-9.327v-36.099h6.264h3.063
			c9.953,0,18.05,8.097,18.05,18.049C158.021,167.22,149.924,175.318,139.971,175.318z"/>
	</g>
</g>
</svg>