<?xml version="1.0" encoding="iso-8859-1"?>
<!-- Uploaded to: SVG Repo, www.svgrepo.com, Generator: SVG Repo Mixer Tools -->
<svg fill="#000000" height="800px" width="800px" version="1.1" id="Layer_1" xmlns="http://www.w3.org/2000/svg" xmlns:xlink="http://www.w3.org/1999/xlink" 
	 viewBox="0 0 511.998 511.998" xml:space="preserve">
<g>
	<g>
		<path d="M55.676,207.671H30.023c-4.523,0-8.188,3.666-8.188,8.188s3.665,8.188,8.188,8.188h25.653
			c4.523,0,8.188-3.666,8.188-8.188S60.199,207.671,55.676,207.671z"/>
	</g>
</g>
<g>
	<g>
		<path d="M99.346,300.464H40.941c-4.523,0-8.188,3.666-8.188,8.188s3.665,8.188,8.188,8.188h58.406
			c4.523,0,8.188-3.666,8.188-8.188S103.87,300.464,99.346,300.464z"/>
	</g>
</g>
<g>
	<g>
		<path d="M77.511,251.338H8.188c-4.523,0-8.188,3.666-8.188,8.188s3.665,8.188,8.188,8.188h69.323c4.523,0,8.188-3.666,8.188-8.188
			S82.034,251.338,77.511,251.338z"/>
	</g>
</g>
<g>
	<g>
		<path d="M77.511,365.966h-6.715c-4.523,0-8.188,3.666-8.188,8.188c0,4.522,3.665,8.188,8.188,8.188h6.715
			c4.523,0,8.188-3.666,8.188-8.188C85.699,369.633,82.034,365.966,77.511,365.966z"/>
	</g>
</g>
<g>
	<g>
		<path d="M43.502,365.966H8.188c-4.523,0-8.188,3.666-8.188,8.188c0,4.522,3.665,8.188,8.188,8.188h35.314
			c4.523,0,8.188-3.666,8.188-8.188C51.69,369.633,48.024,365.966,43.502,365.966z"/>
	</g>
</g>
<g>
	<g>
		<path d="M427.771,159.128h-69.403v-14.739c0-4.522-3.665-8.188-8.188-8.188H246.016c-4.523,0-8.188,3.666-8.188,8.188
			s3.665,8.188,8.188,8.188h95.976v172.495c0,4.522,3.665,8.188,8.188,8.188c4.523,0,8.188-3.666,8.188-8.188V175.504h69.403
			c37.414,0,67.851,30.434,67.851,67.842v138.5h-20.818c-3.938-24.717-25.397-43.67-51.206-43.67
			c-25.808,0-47.268,18.953-51.205,43.67h-14.026v-29.48c0-4.522-3.665-8.188-8.188-8.188c-4.523,0-8.188,3.666-8.188,8.188v29.48
			h-86.901c-3.938-24.717-25.397-43.67-51.205-43.67s-47.268,18.953-51.206,43.67H135.65V262.43c0-4.522-3.665-8.188-8.188-8.188
			s-8.188,3.666-8.188,8.188v127.604c0,4.522,3.665,8.188,8.188,8.188h25.217c3.938,24.717,25.398,43.67,51.206,43.67
			s47.268-18.953,51.205-43.67h117.302c3.938,24.717,25.397,43.67,51.205,43.67s47.268-18.953,51.205-43.67h29.006
			c4.523,0,8.188-3.666,8.188-8.188V243.346C512,196.908,474.214,159.128,427.771,159.128z M203.885,425.516
			c-19.565,0-35.482-15.917-35.482-35.482c0-19.565,15.917-35.482,35.482-35.482c19.565,0,35.482,15.917,35.482,35.482
			C239.367,409.6,223.45,425.516,203.885,425.516z M423.6,425.516c-19.561,0-35.474-15.909-35.482-35.468
			c0-0.004,0.001-0.01,0.001-0.014c0-0.004-0.001-0.01-0.001-0.014c0.008-19.559,15.921-35.468,35.482-35.468
			c19.565,0,35.482,15.917,35.482,35.482C459.082,409.6,443.165,425.516,423.6,425.516z"/>
	</g>
</g>
<g>
	<g>
		<path d="M479.248,243.346c0-28.378-23.092-51.465-51.476-51.465h-44.838c-4.523,0-8.188,3.666-8.188,8.188v76.969
			c0,4.522,3.665,8.188,8.188,8.188h88.128c4.523,0,8.188-3.666,8.188-8.188v-33.692H479.248z M391.121,268.851v-60.592h36.65
			c19.355,0,35.1,15.741,35.1,35.089v25.503H391.121z"/>
	</g>
</g>
<g>
	<g>
		<path d="M203.885,368.925c-11.64,0-21.11,9.47-21.11,21.11c0,11.64,9.47,21.11,21.11,21.11c11.64,0,21.11-9.47,21.11-21.11
			C224.995,378.395,215.525,368.925,203.885,368.925z M203.885,394.768c-2.61,0-4.734-2.123-4.734-4.734
			c0-2.61,2.123-4.734,4.734-4.734c2.61,0,4.734,2.123,4.734,4.734C208.619,392.645,206.495,394.768,203.885,394.768z"/>
	</g>
</g>
<g>
	<g>
		<path d="M423.6,368.925c-11.64,0-21.11,9.47-21.11,21.11c0,11.64,9.47,21.11,21.11,21.11c11.64,0,21.11-9.47,21.11-21.11
			C444.71,378.395,435.24,368.925,423.6,368.925z M423.6,394.768c-2.61,0-4.734-2.123-4.734-4.734c0-2.61,2.123-4.734,4.734-4.734
			c2.61,0,4.734,2.123,4.734,4.734C428.333,392.645,426.21,394.768,423.6,394.768z"/>
	</g>
</g>
<g>
	<g>
		<path d="M471.06,307.607c-4.523,0-8.188,3.666-8.188,8.188v20.743c0,4.522,3.665,8.188,8.188,8.188
			c4.523,0,8.188-3.666,8.188-8.188v-20.743C479.248,311.273,475.582,307.607,471.06,307.607z"/>
	</g>
</g>
<g>
	<g>
		<path d="M140.782,70.105c-11.045,0-21.812,2.041-32.003,6.064c-4.207,1.661-6.269,6.417-4.608,10.623
			c1.661,4.207,6.418,6.268,10.623,4.608c8.266-3.264,17.01-4.919,25.988-4.919c39.037,0,70.796,31.759,70.796,70.796
			s-31.759,70.796-70.796,70.796c-39.037,0-70.796-31.759-70.796-70.796c0-19.857,8.419-38.925,23.097-52.317
			c3.342-3.048,3.578-8.226,0.531-11.567c-3.049-3.341-8.229-3.578-11.568-0.531c-18.072,16.488-28.437,39.966-28.437,64.415
			c0.001,48.068,39.107,87.173,87.173,87.173c48.067,0,87.172-39.106,87.172-87.172C227.954,109.211,188.849,70.105,140.782,70.105z
			"/>
	</g>
</g>
<g>
	<g>
		<path d="M161.004,149.089H148.97v-37.398c0-4.522-3.665-8.188-8.188-8.188s-8.188,3.666-8.188,8.188v45.586
			c0,4.522,3.665,8.188,8.188,8.188h20.223c4.523,0,8.188-3.666,8.188-8.188S165.527,149.089,161.004,149.089z"/>
	</g>
</g>
</svg>